<svg width="243" height="400" viewBox="0 0 243 400" fill="none" xmlns="http://www.w3.org/2000/svg">
<path d="M108.979 386.097C87.9416 370.315 72.7793 346.642 67.662 319.211H0V30.2489C36.2001 48.2856 62.3551 87.7407 65.1981 128.699L75.4327 209.864L70.5049 209.3C59.7017 209.3 50.2253 219.446 50.2253 229.403C50.2253 238.798 57.4274 246.689 66.9039 248.755L79.2233 251.574C99.5029 213.434 111.064 176.045 111.064 139.408C111.064 106.341 106.705 73.2738 105.947 39.4551C105.947 24.4246 111.822 10.7093 121.109 0C130.586 10.7093 136.272 24.4246 136.272 39.4551C136.272 73.2738 131.154 106.341 131.154 139.408C131.154 176.045 142.716 213.434 162.995 251.574L175.315 248.755C184.791 246.689 191.993 238.61 191.993 229.403C191.993 219.258 182.517 209.3 171.714 209.3L166.596 210.052L176.831 128.887C181.948 87.9286 205.829 48.2856 242.029 30.4368V319.399H174.557C169.439 346.642 155.035 371.254 133.239 386.285C128.122 389.854 123.763 394.176 120.92 400C118.266 394.176 113.907 389.854 108.979 386.097ZM32.0304 219.446C34.8734 208.736 42.8336 199.342 53.0682 193.518L45.108 126.632C42.265 105.777 33.5467 87.1771 20.4692 71.9587V219.258H32.0304V219.446ZM66.1457 299.108C66.1457 288.962 67.662 279.756 69.7468 270.362L60.2703 268.107C46.4347 263.786 35.6315 253.077 32.0304 239.361H20.4692V299.108H66.1457ZM111.064 299.108C111.064 286.895 101.588 276.186 89.2683 274.683C87.1835 282.574 85.6673 290.465 85.6673 299.108H111.064ZM111.064 319.399H88.5102C92.1113 335.181 100.071 349.648 111.064 361.86V319.399ZM142.905 256.834C134.187 241.052 126.227 224.519 121.109 207.233C115.992 224.519 108.032 241.052 99.3134 256.834C108.032 258.901 115.234 264.725 121.109 271.301C126.985 264.725 134.187 258.901 142.905 256.834ZM156.741 299.108C156.741 290.465 155.225 282.574 153.14 274.683C140.82 276.186 131.344 286.895 131.344 299.108H156.741ZM153.898 319.399H131.344V361.86C142.337 349.46 150.297 335.181 153.898 319.399ZM221.939 299.108V239.361H210.378C206.777 253.077 195.784 263.786 182.138 268.107L172.661 270.362C174.746 279.756 176.262 288.962 176.262 299.108H221.939ZM221.939 219.446V71.9587C208.861 86.9892 199.385 105.777 197.3 126.632L189.34 193.518C199.574 199.342 207.535 208.549 210.378 219.446H221.939Z" fill="white"/>
</svg>
